<svg xmlns="http://www.w3.org/2000/svg" viewBox="0 0 457.32 214.97"><defs><style>.cls-1{fill:#1d1d1b;}</style></defs><g id="Capa_2" data-name="Capa 2"><g id="Capa_1-2" data-name="Capa 1"><path class="cls-1" d="M52.7,79.59V128.3q0,12.45,1.34,18.37a20.9,20.9,0,0,0,5.13,10,19.73,19.73,0,0,0,7.75,5.18,39.52,39.52,0,0,0,11.41,2v2.81H.33v-2.81a32.53,32.53,0,0,0,11.11-1.89,20.22,20.22,0,0,0,8.18-5.07,22.54,22.54,0,0,0,4.88-10.38Q26,139.9,26,128.3v-90a161,161,0,0,0-.85-16.24,20,20,0,0,0-10.5-16Q9.48,3.3.33,2.81V0H127.89l3.54,39.67-2.8.61A86.3,86.3,0,0,0,123,26.37,40.83,40.83,0,0,0,106.9,9.89,41.76,41.76,0,0,0,93.1,5.13,132.91,132.91,0,0,0,71.62,3.78H52.7v72h4.88q21.6,0,31.37-9.65a27.09,27.09,0,0,0,6.47-9.82A53.75,53.75,0,0,0,98.35,41.5l2.81.13-.73,74H97.5q-1.35-12.45-4.58-19.23a26,26,0,0,0-9.83-10.92,35.57,35.57,0,0,0-12-4.46A98.83,98.83,0,0,0,52.7,79.59Z"/><path class="cls-1" d="M306.36,166.63h-80.2v-2.81q10.86-1,15.14-3.66,7.56-4.77,7.56-13.19,0-5-3.41-13.43l-2.08-5.12L231.65,99.61H177.94l-6.35,16.85L168.54,124q-5.49,13.44-5.49,21.12a18.12,18.12,0,0,0,2,8.42,17.51,17.51,0,0,0,5.44,6.35,24.62,24.62,0,0,0,12.2,3.91v2.81H128v-2.81a25.32,25.32,0,0,0,11.36-3.18,32.76,32.76,0,0,0,9.52-9,69.37,69.37,0,0,0,7.63-12.88q3.72-7.87,9.82-23.62L211,0h7l53.1,128.3a203.47,203.47,0,0,0,9.52,20.75,30.78,30.78,0,0,0,7.69,9.4A21.71,21.71,0,0,0,295,161.8a66.54,66.54,0,0,0,11.35,2Zm-76.66-72L204.06,31.37,179.89,94.6Z"/><path class="cls-1" d="M441,0l2.08,40.28-2.81.13a52.16,52.16,0,0,0-5.25-17A36.25,36.25,0,0,0,424.4,11.6a35.46,35.46,0,0,0-13.55-6Q403,3.8,390.1,3.78h-28V77h7.32q11.1,0,16.72-1.47a18.61,18.61,0,0,0,9.16-5.25A22.17,22.17,0,0,0,400.42,62a73.42,73.42,0,0,0,2.74-14.22l2.81.12-.49,65.43h-2.81a67,67,0,0,0-3.23-15.14,28.78,28.78,0,0,0-5.92-9.76A21.62,21.62,0,0,0,384,82.64a50.92,50.92,0,0,0-14.9-1.83h-7v28q0,16.74.85,24.36a40.06,40.06,0,0,0,3.3,12.75,26.21,26.21,0,0,0,12.63,12.88q8.49,4.09,22.4,4.09,14.66,0,24.54-3.72A36.63,36.63,0,0,0,442,147.58a45,45,0,0,0,7.14-12,106.15,106.15,0,0,0,5.07-17.7l2.8.12-1.58,48.59H309.78v-2.81a40.06,40.06,0,0,0,11.29-1.95,20.53,20.53,0,0,0,7.75-5.13,20.76,20.76,0,0,0,5.19-10q1.39-6,1.4-18.49v-90q0-12.45-1.4-18.49a20.72,20.72,0,0,0-5.19-9.95,19.52,19.52,0,0,0-7.63-5.13,39.75,39.75,0,0,0-11.41-1.95V0Z"/><path class="cls-1" d="M13.75,209.74H3.28L.93,214.87H0l8.1-17.5h.83l8.1,17.5H16.1Zm-.32-.72-4.9-10.68L3.6,209Z"/><path class="cls-1" d="M55.31,213.82a8.43,8.43,0,0,1-3.23-3.18,9.27,9.27,0,0,1,0-9,8.34,8.34,0,0,1,3.23-3.17,9.32,9.32,0,0,1,4.62-1.15,9.59,9.59,0,0,1,3.37.58,7.48,7.48,0,0,1,2.7,1.74l-.52.55A7.66,7.66,0,0,0,60,198a8.43,8.43,0,0,0-4.18,1.06A7.71,7.71,0,0,0,52.83,202a8.32,8.32,0,0,0,0,8.2,7.75,7.75,0,0,0,2.94,2.91A8.33,8.33,0,0,0,60,214.19a7.67,7.67,0,0,0,5.53-2.12l.52.55a7.55,7.55,0,0,1-2.69,1.75,9.84,9.84,0,0,1-8-.55Z"/><path class="cls-1" d="M105.26,213.82a8.43,8.43,0,0,1-3.23-3.18,9.27,9.27,0,0,1,0-9,8.34,8.34,0,0,1,3.23-3.17,9.32,9.32,0,0,1,4.62-1.15,9.59,9.59,0,0,1,3.37.58,7.48,7.48,0,0,1,2.7,1.74l-.52.55a7.65,7.65,0,0,0-5.53-2.1,8.39,8.39,0,0,0-4.17,1.06,7.73,7.73,0,0,0-3,2.92,8.32,8.32,0,0,0,0,8.2,7.78,7.78,0,0,0,3,2.91,8.29,8.29,0,0,0,4.17,1.06,7.67,7.67,0,0,0,5.53-2.12l.52.55a7.55,7.55,0,0,1-2.69,1.75,9.84,9.84,0,0,1-8-.55Z"/><path class="cls-1" d="M164.77,214.09v.78H153v-17.5h11.47v.77H153.8v7.45h9.5v.78h-9.5v7.72Z"/><path class="cls-1" d="M203,214.29a6.48,6.48,0,0,1-2.63-1.75l.45-.6a6.34,6.34,0,0,0,2.43,1.64,8.87,8.87,0,0,0,3.34.64,6.39,6.39,0,0,0,4-1,3.23,3.23,0,0,0,1.34-2.66,2.85,2.85,0,0,0-.7-2,4.57,4.57,0,0,0-1.72-1.15,28.55,28.55,0,0,0-2.8-.81,26.07,26.07,0,0,1-3-.92,4.83,4.83,0,0,1-2-1.38,3.6,3.6,0,0,1-.8-2.47,4,4,0,0,1,.65-2.25,4.41,4.41,0,0,1,2-1.64,8,8,0,0,1,3.34-.61,9.62,9.62,0,0,1,2.81.42,7.31,7.31,0,0,1,2.37,1.18l-.38.67a7.68,7.68,0,0,0-2.29-1.14,8.69,8.69,0,0,0-2.48-.38,6.05,6.05,0,0,0-3.87,1.06,3.32,3.32,0,0,0-1.31,2.69,2.85,2.85,0,0,0,.71,2,4.73,4.73,0,0,0,1.75,1.17,23.94,23.94,0,0,0,2.79.82,29.2,29.2,0,0,1,3,.91,4.93,4.93,0,0,1,1.94,1.35,3.63,3.63,0,0,1,.79,2.44,4.07,4.07,0,0,1-.67,2.25,4.49,4.49,0,0,1-2,1.63,8.52,8.52,0,0,1-3.4.6A9.79,9.79,0,0,1,203,214.29Z"/><path class="cls-1" d="M252.39,213.82a8.39,8.39,0,0,1-3.24-3.18,9.34,9.34,0,0,1,0-9,8.3,8.3,0,0,1,3.24-3.17,9.25,9.25,0,0,1,4.61-1.15,9.38,9.38,0,0,1,4.63,1.15,8.39,8.39,0,0,1,3.25,3.17,9.34,9.34,0,0,1,0,9,8.49,8.49,0,0,1-3.25,3.18A9.49,9.49,0,0,1,257,215,9.36,9.36,0,0,1,252.39,213.82Zm8.79-.68a7.75,7.75,0,0,0,2.95-2.9,8.49,8.49,0,0,0,0-8.25,7.75,7.75,0,0,0-2.95-2.9A8.42,8.42,0,0,0,257,198a8.32,8.32,0,0,0-4.16,1.05,7.8,7.8,0,0,0-2.94,2.9,8.49,8.49,0,0,0,0,8.25,7.8,7.8,0,0,0,2.94,2.9,8.32,8.32,0,0,0,4.16,1.05A8.42,8.42,0,0,0,261.18,213.14Z"/><path class="cls-1" d="M315.48,214.87l-4.33-6a11,11,0,0,1-1.9.15H304v5.88h-.84v-17.5h6.07a7.75,7.75,0,0,1,5.11,1.53,5.26,5.26,0,0,1,1.84,4.27,5.55,5.55,0,0,1-1.09,3.51,5.65,5.65,0,0,1-3.11,2l4.48,6.23Zm-6.18-6.65a6.82,6.82,0,0,0,4.5-1.32,5.18,5.18,0,0,0,0-7.45,6.88,6.88,0,0,0-4.5-1.31H304v10.08Z"/><path class="cls-1" d="M353.62,197.37h.85v17.5h-.85Z"/><path class="cls-1" d="M396,213.82a8.53,8.53,0,0,1-3.24-3.18,9.34,9.34,0,0,1,0-9,8.43,8.43,0,0,1,3.24-3.17,9.86,9.86,0,0,1,9.24,0,8.32,8.32,0,0,1,3.25,3.17,9.34,9.34,0,0,1,0,9,8.42,8.42,0,0,1-3.25,3.18,9.86,9.86,0,0,1-9.24,0Zm8.79-.68a7.75,7.75,0,0,0,2.95-2.9,8.49,8.49,0,0,0,0-8.25,7.75,7.75,0,0,0-2.95-2.9,8.81,8.81,0,0,0-8.34,0,7.8,7.8,0,0,0-2.94,2.9,8.49,8.49,0,0,0,0,8.25,7.8,7.8,0,0,0,2.94,2.9,8.81,8.81,0,0,0,8.34,0Z"/><path class="cls-1" d="M447.61,214.29a6.59,6.59,0,0,1-2.64-1.75l.45-.6a6.46,6.46,0,0,0,2.44,1.64,8.87,8.87,0,0,0,3.34.64,6.39,6.39,0,0,0,4-1,3.23,3.23,0,0,0,1.34-2.66,2.85,2.85,0,0,0-.7-2,4.53,4.53,0,0,0-1.73-1.15,27,27,0,0,0-2.8-.81,27.33,27.33,0,0,1-3-.92,5,5,0,0,1-2-1.38,3.65,3.65,0,0,1-.8-2.47,4.13,4.13,0,0,1,.65-2.25,4.5,4.5,0,0,1,2-1.64,8,8,0,0,1,3.34-.61,9.62,9.62,0,0,1,2.81.42,7.25,7.25,0,0,1,2.36,1.18l-.37.67A7.68,7.68,0,0,0,454,198.4a8.71,8.71,0,0,0-2.49-.38,6,6,0,0,0-3.86,1.06,3.32,3.32,0,0,0-1.31,2.69,2.85,2.85,0,0,0,.71,2,4.73,4.73,0,0,0,1.75,1.17,23.94,23.94,0,0,0,2.79.82,29.2,29.2,0,0,1,3.05.91,4.93,4.93,0,0,1,1.94,1.35,3.63,3.63,0,0,1,.78,2.44,4.06,4.06,0,0,1-.66,2.25,4.47,4.47,0,0,1-2,1.63,8.48,8.48,0,0,1-3.4.6A9.77,9.77,0,0,1,447.61,214.29Z"/></g></g></svg>